<svg xmlns="http://www.w3.org/2000/svg" xmlns:xlink="http://www.w3.org/1999/xlink"><defs><symbol viewBox="0 0 18 11" id="arrow-down"><path fill-rule="evenodd" clip-rule="evenodd" d="M9.06 7.875L1.786.582.375 1.996l8.686 8.708 8.686-8.708-1.41-1.414L9.06 7.875z" /></symbol><symbol viewBox="0 0 18 11" id="arrow-up"><path fill-rule="evenodd" clip-rule="evenodd" d="M9.06 3.41l-7.275 7.294-1.41-1.415L9.06.582l8.686 8.707-1.411 1.415L9.061 3.41z" /></symbol><symbol viewBox="0 0 14 14" id="arrows-down"><path fill-rule="evenodd" clip-rule="evenodd" d="M12 0L6.707 5.293 1.414 0 0 1.414l6.707 6.707 6.707-6.707L12 0zm1.414 6.414L12 5l-5.293 5.293L1.414 5 0 6.414l6.707 6.707 6.707-6.707z" /></symbol><symbol viewBox="0 0 20 20" id="cross"><g clip-path="url(#cross_clip0)"><path d="M16.82.12a.413.413 0 00-.582 0L10.29 6.066a.413.413 0 01-.582 0L3.763.12a.413.413 0 00-.583 0L.12 3.18a.413.413 0 000 .583l5.946 5.946c.16.16.16.422 0 .582L.12 16.238a.413.413 0 000 .582l3.06 3.06c.16.16.422.16.583 0l5.946-5.946c.16-.16.422-.16.582 0l5.946 5.946c.16.16.423.16.583 0l3.06-3.06a.413.413 0 000-.583l-5.946-5.946a.413.413 0 010-.582l5.946-5.946a.413.413 0 000-.583L16.82.12z" /></g><defs></defs></symbol><clipPath id="cross_clip0"><path d="M0 0h20v20H0z" /></clipPath><symbol viewBox="0 0 29 30" id="email"><path fill-rule="evenodd" clip-rule="evenodd" d="M.09 6.943a3.625 3.625 0 013.535-2.818h21.75a3.625 3.625 0 013.534 2.818L14.5 15.75.09 6.943zM0 9.013V21.89l10.518-6.449L0 9.013zm12.254 7.491l-11.908 7.3a3.625 3.625 0 003.279 2.071h21.75a3.625 3.625 0 003.277-2.073l-11.908-7.3-2.244 1.373-2.246-1.372v.001zm6.228-1.062L29 21.89V9.013L18.482 15.44v.002z" /></symbol><symbol viewBox="0 0 25 26" id="github"><g clip-path="url(#github_clip0)"><path d="M22.956 8.222a7.93 7.93 0 00.406-2.524 7.226 7.226 0 00-.766-3.275c-1.072 0-2.018.195-2.84.586-.821.39-1.758.997-2.809 1.818a17.81 17.81 0 00-4.206-.48c-1.623 0-3.17.174-4.643.525-1.072-.841-2.018-1.46-2.84-1.855-.82-.396-1.772-.594-2.854-.594a7.224 7.224 0 00-.766 3.275c0 .882.135 1.733.405 2.554C.681 9.845 0 11.828 0 14.202c0 2.083.31 3.741.931 4.973a6.25 6.25 0 001.293 1.728c.53.5 1.136.906 1.817 1.217.682.31 1.368.568 2.059.773.69.206 1.455.356 2.29.45.837.096 1.576.159 2.217.19.64.029 1.352.044 2.133.044.922 0 1.758-.023 2.51-.067.75-.045 1.61-.156 2.576-.33.966-.176 1.818-.414 2.554-.715a8.138 8.138 0 002.119-1.291 6.06 6.06 0 001.585-1.999c.61-1.242.916-2.9.916-4.973 0-2.384-.681-4.377-2.044-5.98zm-1.802 10.93c-.32.656-.726 1.172-1.217 1.548-.491.376-1.102.676-1.833.902-.731.225-1.432.372-2.103.442-.672.07-1.418.105-2.24.105h-2.523c-.822 0-1.568-.035-2.239-.105a11.034 11.034 0 01-2.103-.442c-.731-.226-1.342-.526-1.833-.902-.49-.376-.897-.892-1.217-1.548-.32-.656-.48-1.425-.48-2.306 0-1.202.345-2.224 1.036-3.065.691-.841 1.628-1.262 2.81-1.262.43 0 1.407.105 2.93.316.71.11 1.497.165 2.358.165s1.648-.055 2.359-.165c1.542-.21 2.519-.316 2.93-.316 1.181 0 2.118.42 2.809 1.262.691.841 1.036 1.863 1.036 3.065 0 .882-.16 1.65-.48 2.306z" /><path d="M8.781 14.472c-.305-.34-.668-.51-1.089-.51-.42 0-.784.17-1.09.51-.305.34-.52.721-.645 1.142a4.305 4.305 0 00-.188 1.232c0 .4.063.811.188 1.232.125.42.34.801.646 1.142.305.34.668.51 1.09.51.42 0 .783-.17 1.088-.51.306-.34.521-.721.646-1.142a4.31 4.31 0 00.188-1.232c0-.4-.062-.811-.188-1.232a2.96 2.96 0 00-.646-1.142zM18.397 14.472c-.306-.34-.669-.51-1.09-.51-.42 0-.783.17-1.089.51-.305.34-.52.721-.645 1.142a4.302 4.302 0 00-.189 1.232c0 .4.063.811.189 1.232.125.42.34.801.645 1.142.306.34.67.51 1.09.51.42 0 .783-.17 1.089-.51.305-.34.52-.721.646-1.142.125-.42.188-.831.188-1.232 0-.4-.063-.811-.188-1.232-.125-.42-.341-.801-.646-1.142z" /></g><defs></defs></symbol><clipPath id="github_clip0"><path transform="translate(0 .5)" d="M0 0h25v25H0z" /></clipPath><symbol viewBox="0 0 25 26" id="inst"><g clip-path="url(#inst_clip0)"><path d="M3.209.5H21.79C23.556.5 25 1.807 25 3.709V22.29c0 1.902-1.444 3.209-3.209 3.209H3.21C1.444 25.5 0 24.194 0 22.291V3.71C0 1.807 1.444.5 3.209.5zM18.21 3.278c-.619 0-1.125.506-1.125 1.125v2.694c0 .62.506 1.126 1.125 1.126h2.826c.62 0 1.126-.507 1.126-1.126V4.403c0-.62-.507-1.125-1.126-1.125h-2.826zm3.963 7.794h-2.2c.208.68.32 1.4.32 2.145 0 4.158-3.479 7.53-7.77 7.53-4.292 0-7.77-3.372-7.77-7.53a7.3 7.3 0 01.32-2.145H2.778v10.56c0 .547.447.995.994.995h17.409a.997.997 0 00.994-.994v-10.56zm-9.65-2.991c-2.773 0-5.021 2.178-5.021 4.865 0 2.687 2.248 4.865 5.02 4.865 2.774 0 5.022-2.178 5.022-4.865 0-2.687-2.248-4.865-5.022-4.865z" /></g><defs></defs></symbol><clipPath id="inst_clip0"><path transform="translate(0 .5)" d="M0 0h25v25H0z" /></clipPath><symbol viewBox="0 0 512 512" id="key"><path d="M334.974 0c-95.419 0-173.049 77.63-173.049 173.049 0 21.213 3.769 41.827 11.211 61.403L7.672 399.928a12.613 12.613 0 00-3.694 8.917v90.544c0 6.965 5.646 12.611 12.611 12.611h74.616a12.61 12.61 0 008.91-3.686l25.145-25.107a12.61 12.61 0 003.701-8.925v-30.876h30.837c6.965 0 12.611-5.646 12.611-12.611v-12.36h12.361c6.964 0 12.611-5.646 12.611-12.611v-27.136h27.136c3.344 0 6.551-1.329 8.917-3.694l40.121-40.121c19.579 7.449 40.196 11.223 61.417 11.223 95.419 0 173.049-77.63 173.049-173.049C508.022 77.63 430.393 0 334.974 0zm0 320.874c-20.642 0-40.606-4.169-59.339-12.393-4.844-2.126-10.299-.956-13.871 2.525-.039.037-.077.067-.115.106l-42.354 42.354h-34.523c-6.965 0-12.611 5.646-12.611 12.611v27.136H159.8c-6.964 0-12.611 5.646-12.611 12.611v12.36h-30.838c-6.964 0-12.611 5.646-12.611 12.611v38.257l-17.753 17.725H29.202v-17.821l154.141-154.14c4.433-4.433 4.433-11.619 0-16.051s-11.617-4.434-16.053 0L29.202 436.854V414.07l167.696-167.708c.038-.038.067-.073.102-.11 3.482-3.569 4.656-9.024 2.53-13.872-8.216-18.732-12.38-38.695-12.38-59.33 0-81.512 66.315-147.827 147.827-147.827S482.802 91.537 482.802 173.05c-.002 81.51-66.318 147.824-147.828 147.824z" /><path d="M387.638 73.144c-26.047 0-47.237 21.19-47.237 47.237s21.19 47.237 47.237 47.237 47.237-21.19 47.237-47.237-21.189-47.237-47.237-47.237zm0 69.252c-12.139 0-22.015-9.876-22.015-22.015s9.876-22.015 22.015-22.015 22.015 9.876 22.015 22.015-9.876 22.015-22.015 22.015z" /></symbol><symbol viewBox="0 0 23 23" id="link"><path fill-rule="evenodd" clip-rule="evenodd" d="M12.02 14.85l1.415 1.414-2.828 2.828a5 5 0 11-7.071-7.071l2.828-2.829 1.414 1.415-2.828 2.828a3 3 0 104.242 4.243l2.829-2.829zm-1.413-7.072L9.192 6.364l2.829-2.828a5 5 0 017.07 7.07l-2.828 2.83-1.414-1.415 2.829-2.829a3 3 0 00-4.243-4.242l-2.828 2.828zm3.535-.707l-7.07 7.071 1.413 1.414 7.071-7.07-1.414-1.415z" /></symbol><symbol viewBox="0 0 512 512" id="loader"><path d="M256.001 0c-8.284 0-15 6.716-15 15v96.4c0 8.284 6.716 15 15 15s15-6.716 15-15V15c0-8.284-6.716-15-15-15zM256.001 385.601c-8.284 0-15 6.716-15 15V497c0 8.284 6.716 15 15 15s15-6.716 15-15v-96.399c0-8.285-6.716-15-15-15zM196.691 123.272l-48.2-83.485c-4.142-7.175-13.316-9.633-20.49-5.49-7.174 4.142-9.632 13.316-5.49 20.49l48.2 83.485c2.778 4.813 7.82 7.502 13.004 7.502 2.545 0 5.124-.648 7.486-2.012 7.174-4.142 9.632-13.316 5.49-20.49zM389.491 457.212l-48.199-83.483c-4.142-7.175-13.316-9.633-20.49-5.49-7.174 4.142-9.632 13.316-5.49 20.49l48.199 83.483c2.778 4.813 7.82 7.502 13.004 7.502 2.545 0 5.124-.648 7.486-2.012 7.174-4.142 9.632-13.316 5.49-20.49zM138.274 170.711L54.788 122.51c-7.176-4.144-16.348-1.685-20.49 5.49-4.142 7.174-1.684 16.348 5.49 20.49l83.486 48.202a14.928 14.928 0 007.486 2.012c5.184 0 10.226-2.69 13.004-7.503 4.142-7.174 1.684-16.348-5.49-20.49zM472.213 363.51l-83.484-48.199c-7.176-4.142-16.349-1.684-20.49 5.491-4.142 7.175-1.684 16.349 5.49 20.49l83.484 48.199a14.93 14.93 0 007.486 2.012c5.184 0 10.227-2.69 13.004-7.502 4.142-7.176 1.684-16.35-5.49-20.491zM111.401 241.002H15c-8.284 0-15 6.716-15 15s6.716 15 15 15h96.401c8.284 0 15-6.716 15-15s-6.716-15-15-15zM497 241.002h-96.398c-8.284 0-15 6.716-15 15s6.716 15 15 15H497c8.284 0 15-6.716 15-15s-6.716-15-15-15zM143.765 320.802c-4.142-7.175-13.314-9.633-20.49-5.49l-83.486 48.2c-7.174 4.142-9.632 13.316-5.49 20.49 2.778 4.813 7.82 7.502 13.004 7.502 2.545 0 5.124-.648 7.486-2.012l83.486-48.2c7.174-4.142 9.632-13.316 5.49-20.49zM477.702 128.003c-4.142-7.175-13.315-9.632-20.49-5.49l-83.484 48.2c-7.174 4.141-9.632 13.315-5.49 20.489 2.778 4.813 7.82 7.503 13.004 7.503a14.93 14.93 0 007.486-2.012l83.484-48.2c7.174-4.142 9.632-13.316 5.49-20.49zM191.201 368.239c-7.174-4.144-16.349-1.685-20.49 5.49l-48.2 83.485c-4.142 7.174-1.684 16.348 5.49 20.49a14.928 14.928 0 007.486 2.012c5.184 0 10.227-2.69 13.004-7.502l48.2-83.485c4.142-7.174 1.684-16.348-5.49-20.49zM384.001 34.3c-7.175-4.144-16.349-1.685-20.49 5.49l-48.199 83.483c-4.143 7.174-1.685 16.348 5.49 20.49a14.928 14.928 0 007.486 2.012c5.184 0 10.226-2.69 13.004-7.502l48.199-83.483c4.142-7.174 1.684-16.348-5.49-20.49z" /></symbol><symbol viewBox="0 0 30 26" id="menu"><path fill-rule="evenodd" clip-rule="evenodd" d="M0 .667V5.6h29.6V.667H0zm0 14.8v-4.934h29.6v4.934H0zm0 9.866V20.4h29.6v4.933H0z" /></symbol><symbol viewBox="0 0 15 15" id="pencil"><g clip-path="url(#pencil_clip0)"><path d="M9.327 2.528l3.052 3.051-7.724 7.724-3.05-3.052 7.722-7.723zm5.367-.736L13.334.43a1.35 1.35 0 00-1.908 0l-1.304 1.303 3.052 3.052 1.52-1.52a1.04 1.04 0 000-1.474zM.008 14.54c-.055.25.17.474.42.413l3.4-.824L.78 11.078.01 14.54z" fill-opacity=".5" /></g><defs></defs></symbol><clipPath id="pencil_clip0"><path d="M0 0h15v15H0z" /></clipPath><symbol viewBox="0 0 77 58" id="quote"><path d="M.415 43.125l.096.644.1-.023a17.25 17.25 0 1016.862-20.857c-.855 0-1.675.13-2.491.249.264-.89.536-1.794.973-2.607.437-1.18 1.12-2.204 1.798-3.235.567-1.116 1.568-1.87 2.304-2.825.77-.928 1.82-1.545 2.652-2.316.817-.805 1.887-1.207 2.738-1.774.889-.51 1.663-1.074 2.491-1.342l2.066-.851 1.817-.755L29.966 0l-2.289.552c-.732.184-1.625.398-2.64.655-1.04.192-2.147.717-3.382 1.196-1.215.548-2.63.913-3.94 1.79-1.319.836-2.84 1.534-4.182 2.653-1.3 1.154-2.868 2.155-4.025 3.619-1.265 1.372-2.515 2.813-3.485 4.454-1.123 1.564-1.886 3.282-2.69 4.98a42.454 42.454 0 00-1.795 5.121C.63 28.401.223 31.613.066 34.362c-.13 2.752-.054 5.04.107 6.697.054.691.135 1.38.242 2.066zm42.166 0l.096.644.1-.023A17.25 17.25 0 1059.64 22.889c-.855 0-1.675.13-2.492.249.265-.89.537-1.794.974-2.607.437-1.18 1.12-2.204 1.798-3.235.567-1.116 1.567-1.87 2.303-2.825.771-.928 1.821-1.545 2.653-2.316.817-.805 1.886-1.207 2.737-1.774.89-.51 1.664-1.074 2.492-1.342l2.066-.851c1.154-.472 1.813-.748 1.813-.748L72.13.008 69.84.56c-.732.183-1.625.398-2.64.655-1.04.192-2.148.717-3.382 1.196-1.215.548-2.63.912-3.94 1.79-1.32.836-2.841 1.534-4.183 2.653-1.3 1.154-2.867 2.154-4.025 3.619-1.265 1.372-2.514 2.813-3.484 4.454-1.123 1.564-1.886 3.281-2.691 4.98a42.44 42.44 0 00-1.794 5.12c-.909 3.382-1.315 6.594-1.472 9.343-.13 2.752-.054 5.04.107 6.696.058.69.14 1.376.245 2.059z" /></symbol><symbol viewBox="0 0 15 13" id="tick"><path d="M12.708.458l-7.5 7.499-2.916-2.915L0 7.335l5.208 5.207L15 2.75 12.708.458z" /></symbol><symbol viewBox="0 0 15 15" id="trash"><path d="M2.5 13.333C2.5 14.25 3.25 15 4.167 15h6.666c.917 0 1.667-.75 1.667-1.667v-10h-10v10zM13.333.833h-2.916L9.583 0H5.417l-.834.833H1.667V2.5h11.666V.833z" fill-opacity=".5" /></symbol><symbol viewBox="0 0 482.9 482.9" id="user"><path d="M239.7 260.2h3.2c29.3-.5 53-10.8 70.5-30.5 38.5-43.4 32.1-117.8 31.4-124.9-2.5-53.3-27.7-78.8-48.5-90.7C280.8 5.2 262.7.4 242.5 0H240.8c-11.1 0-32.9 1.8-53.8 13.7-21 11.9-46.6 37.4-49.1 91.1-.7 7.1-7.1 81.5 31.4 124.9 17.4 19.7 41.1 30 70.4 30.5zm-75.1-152.9c0-.3.1-.6.1-.8 3.3-71.7 54.2-79.4 76-79.4H241.9c27 .6 72.9 11.6 76 79.4 0 .3 0 .6.1.8.1.7 7.1 68.7-24.7 104.5-12.6 14.2-29.4 21.2-51.5 21.4h-1c-22-.2-38.9-7.2-51.4-21.4-31.7-35.6-24.9-103.9-24.8-104.5z" /><path d="M446.8 383.6v-.3c0-.8-.1-1.6-.1-2.5-.6-19.8-1.9-66.1-45.3-80.9-.3-.1-.7-.2-1-.3-45.1-11.5-82.6-37.5-83-37.8-6.1-4.3-14.5-2.8-18.8 3.3-4.3 6.1-2.8 14.5 3.3 18.8 1.7 1.2 41.5 28.9 91.3 41.7 23.3 8.3 25.9 33.2 26.6 56 0 .9 0 1.7.1 2.5.1 9-.5 22.9-2.1 30.9-16.2 9.2-79.7 41-176.3 41-96.2 0-160.1-31.9-176.4-41.1-1.6-8-2.3-21.9-2.1-30.9 0-.8.1-1.6.1-2.5.7-22.8 3.3-47.7 26.6-56 49.8-12.8 89.6-40.6 91.3-41.7 6.1-4.3 7.6-12.7 3.3-18.8-4.3-6.1-12.7-7.6-18.8-3.3-.4.3-37.7 26.3-83 37.8-.4.1-.7.2-1 .3-43.4 14.9-44.7 61.2-45.3 80.9 0 .9 0 1.7-.1 2.5v.3c-.1 5.2-.2 31.9 5.1 45.3 1 2.6 2.8 4.8 5.2 6.3 3 2 74.9 47.8 195.2 47.8s192.2-45.9 195.2-47.8c2.3-1.5 4.2-3.7 5.2-6.3 5-13.3 4.9-40 4.8-45.2z" /></symbol><symbol viewBox="0 0 32 32" id="vk"><g clip-path="url(#vk_clip0)"><path d="M31.83 23.36a2.194 2.194 0 00-.108-.209c-.555-1-1.616-2.227-3.182-3.682l-.033-.033-.017-.017-.017-.016h-.017c-.71-.678-1.16-1.133-1.349-1.367-.345-.444-.422-.894-.234-1.35.134-.344.634-1.07 1.5-2.182.455-.588.816-1.06 1.083-1.416 1.922-2.555 2.755-4.187 2.5-4.898l-.1-.166c-.067-.1-.239-.192-.516-.275-.278-.084-.634-.097-1.067-.042l-4.798.033c-.078-.027-.189-.025-.334.009l-.216.05-.084.041-.066.05a.74.74 0 00-.183.175c-.067.083-.122.18-.167.292a27.205 27.205 0 01-1.783 3.749 35.474 35.474 0 01-1.133 1.79c-.344.506-.633.878-.866 1.117-.233.239-.444.43-.633.575-.19.144-.333.205-.433.183-.1-.022-.194-.045-.284-.067-.155-.1-.28-.236-.374-.408a1.826 1.826 0 01-.192-.65 7.147 7.147 0 01-.058-.675c-.006-.188-.003-.455.008-.8.012-.344.017-.577.017-.7 0-.421.008-.88.025-1.374.016-.494.03-.886.041-1.174.012-.289.017-.595.017-.917 0-.322-.02-.574-.058-.758a2.597 2.597 0 00-.175-.533.897.897 0 00-.341-.4 1.925 1.925 0 00-.559-.225c-.588-.133-1.338-.205-2.249-.216-2.066-.022-3.393.11-3.982.4a2.245 2.245 0 00-.633.5c-.2.244-.228.377-.084.4.667.099 1.139.338 1.417.715l.1.2c.078.145.155.4.233.767.078.367.128.772.15 1.216.055.811.055 1.505 0 2.083a24.934 24.934 0 01-.158 1.35c-.05.321-.126.582-.225.782-.1.2-.167.322-.2.367a.285.285 0 01-.084.083 1.246 1.246 0 01-.45.083c-.155 0-.344-.077-.566-.233a4.004 4.004 0 01-.691-.641c-.24-.273-.509-.653-.809-1.142a19.91 19.91 0 01-.932-1.732l-.267-.484c-.167-.31-.394-.763-.683-1.357a26.178 26.178 0 01-.766-1.725 1.098 1.098 0 00-.4-.533l-.084-.05a1.14 1.14 0 00-.266-.142 1.768 1.768 0 00-.383-.108l-4.565.033c-.467 0-.784.106-.95.317l-.067.1a.539.539 0 00-.05.266c0 .123.033.273.1.45a54.987 54.987 0 002.174 4.532c.783 1.455 1.464 2.627 2.041 3.515a41.48 41.48 0 001.766 2.516c.6.789.997 1.294 1.191 1.516.195.223.348.389.459.5l.416.4c.267.266.658.586 1.175.958.516.372 1.088.739 1.716 1.1.628.36 1.358.655 2.191.883.833.227 1.644.319 2.433.275h1.915c.39-.034.683-.156.884-.367l.066-.083c.044-.067.086-.17.125-.308.039-.14.058-.292.058-.459a5.488 5.488 0 01.108-1.29c.083-.384.178-.672.284-.867.105-.194.225-.358.358-.491a1.45 1.45 0 01.284-.242c.055-.028.099-.047.132-.058.267-.089.58-.003.942.258.361.261.7.584 1.016.967.317.383.697.813 1.142 1.29.444.479.833.834 1.166 1.067l.333.2c.222.134.511.256.867.367.355.11.666.139.933.083l4.265-.066c.421 0 .75-.07.983-.209.233-.139.371-.292.416-.458.045-.167.047-.356.009-.567a2.095 2.095 0 00-.118-.441z" /></g><defs></defs></symbol><clipPath id="vk_clip0"><path d="M0 0h32v32H0z" /></clipPath></defs></svg>